<?xml version="1.0" encoding="UTF-8"?>
<svg width="37px" height="37px" viewBox="0 0 37 37" version="1.1" xmlns="http://www.w3.org/2000/svg" xmlns:xlink="http://www.w3.org/1999/xlink">
    <!-- Generator: Sketch 58 (84663) - https://sketch.com -->
    <title>download button</title>
    <desc>Created with Sketch.</desc>
    <g id="Line" stroke="none" stroke-width="1" fill="none" fill-rule="evenodd">
        <g id="download-button">
            <circle id="Oval" fill="#000000" cx="18.5" cy="18.5" r="18.5"></circle>
            <g id="iconspace_Download_25px" transform="translate(13.000000, 10.000000)" fill="#D3D3D3" fill-rule="nonzero">
                <path d="M6,11.3011782 L10.1460939,7.14679966 C10.3411611,6.95134272 10.6577434,6.95102675 10.8532003,7.14609391 C11.0486573,7.34116106 11.0489733,7.6577434 10.8539061,7.85320033 L5.86387707,12.8532003 C5.76495425,12.9523208 5.63478109,13.0012564 5.50500222,12.9999755 L5.5,13.0001097 C5.33182822,13.0001097 5.18304811,12.9169744 5.09241298,12.7896765 L0.146798962,7.85390539 C-0.0486575882,7.65883784 -0.0489729371,7.34225551 0.146094611,7.14679896 C0.341162158,6.95134241 0.657744491,6.95102706 0.853201041,7.14609461 L5,11.2846405 L5,0.5 C5,0.223857625 5.22385763,-3.55271368e-15 5.5,-3.55271368e-15 C5.77614237,-3.55271368e-15 6,0.223857625 6,0.5 L6,11.3011782 Z" id="Path"></path>
                <path d="M10.5,16 L0.5,16 C0.223857625,16 0,15.7761424 0,15.5 C0,15.2238576 0.223857625,15 0.5,15 L10.5,15 C10.7761424,15 11,15.2238576 11,15.5 C11,15.7761424 10.7761424,16 10.5,16 Z" id="Path"></path>
            </g>
        </g>
    </g>
</svg>